<svg xmlns="http://www.w3.org/2000/svg" width="117.272" height="90.026" viewBox="0 0 117.272 90.026">
  <defs>
    <style>
      .cls-1 {
        fill: #e8edfc;
      }

      .cls-2 {
        fill: #cad9fc;
      }

      .cls-3 {
        fill: #a4c2f7;
      }

      .cls-4 {
        fill: #fff;
      }
    </style>
  </defs>
  <g id="Page-1" transform="translate(0 -0.94)">
    <g id="_021---Laundry-Basket" data-name="021---Laundry-Basket" transform="translate(0 0.94)">
      <rect id="Rectangle-path" class="cls-1" width="113.363" height="11.727" rx="2" transform="translate(1.955 29.435)"/>
      <path id="Shape" class="cls-2" d="M59.864,16H54a3.921,3.921,0,0,1,3.909,3.909v3.909A3.921,3.921,0,0,1,54,27.727h5.864a3.921,3.921,0,0,0,3.909-3.909V19.909A3.921,3.921,0,0,0,59.864,16Z" transform="translate(51.545 13.435)"/>
      <path id="Shape-2" data-name="Shape" class="cls-1" d="M11.818,11.909V23.636H4V11.909a3.909,3.909,0,0,1,7.818,0Z" transform="translate(3.818 5.799)"/>
      <path id="Shape-3" data-name="Shape" class="cls-1" d="M59.818,11.909V23.636H52V11.909a3.909,3.909,0,0,1,7.818,0Z" transform="translate(49.636 5.799)"/>
      <path id="Shape-4" data-name="Shape" class="cls-2" d="M102.378,22s-3.127,26.054-3.147,26.249a23.5,23.5,0,0,1-23.3,20.659H31.565a23.5,23.5,0,0,1-23.3-20.659S5.14,22.2,5.12,22Z" transform="translate(4.887 19.163)"/>
      <path id="Shape-5" data-name="Shape" class="cls-3" d="M64.795,22s-3.127,26.054-3.147,26.249a23.5,23.5,0,0,1-23.3,20.659h5.864a23.5,23.5,0,0,0,23.3-20.659c.02-.2,3.147-26.249,3.147-26.249Z" transform="translate(36.607 19.163)"/>
      <path id="Shape-6" data-name="Shape" class="cls-4" d="M94,16.838v7.975H8v-9.03l4.437-2.775,1.974-1.231A17.528,17.528,0,0,1,28.523,9.763c.41.117.821.254,1.212.391L43.162,15.04,65.288,7.672c.078-.02.176-.059.254-.078a17.56,17.56,0,0,1,13.643,1.27l9.265,4.984Z" transform="translate(7.636 4.622)"/>
      <path id="Shape-7" data-name="Shape" class="cls-1" d="M59.174,13.84,49.91,8.856A17.556,17.556,0,0,0,38.669,7.025a17.558,17.558,0,0,1,5.377,1.831L53.31,13.84l5.551,2.99v7.975h5.864V16.831Z" transform="translate(36.911 4.63)"/>
      <path id="Shape-8" data-name="Shape" class="cls-1" d="M63.375,12.2c-.078.02-.176.059-.254.078L41,19.648,27.568,14.762c-.391-.137-.8-.274-1.212-.391a17.528,17.528,0,0,0-14.112,2.013L10.27,17.615l4.691-7.505a17.571,17.571,0,0,1,6.978-6.333A17.241,17.241,0,0,1,29.718,1.94a17.5,17.5,0,0,1,7.075,1.5l4.593,2.033h.02a13.721,13.721,0,0,1,12.548.938l2.4,1.485Z" transform="translate(9.803 0.015)"/>
      <path id="Shape-9" data-name="Shape" class="cls-2" d="M42.721,6.7l-2.4-1.485A13.682,13.682,0,0,0,30.226,3.521a13.65,13.65,0,0,1,4.228,1.693l2.4,1.485L43.875,11c-.078.02-.176.059-.254.078L24.556,17.425l2.8,1.02,22.125-7.369c.078-.02.176-.059.254-.078Z" transform="translate(23.44 1.217)"/>
      <path id="Shape-10" data-name="Shape" class="cls-1" d="M63.774,18.4l-9.265-4.984a17.56,17.56,0,0,0-13.643-1.27l-7.017-4.3,5.59-3.557A14.659,14.659,0,0,1,60.9,11.2Z" transform="translate(32.311 0.074)"/>
      <path id="Shape-11" data-name="Shape" class="cls-2" d="M44.423,4.451A14.579,14.579,0,0,1,49.9,11.195l1.268,3.174,7.468,4.019L55.76,11.195A14.581,14.581,0,0,0,39.236,2.321a14.516,14.516,0,0,1,5.187,2.13Z" transform="translate(37.452 0.083)"/>
      <path id="Shape-12" data-name="Shape" class="cls-4" d="M4.909,35.364H9.053c.02.2,3.147,26.249,3.147,26.249A23.5,23.5,0,0,0,35.5,82.272h5.864a23.5,23.5,0,0,1-23.3-20.659s-3.127-26.054-3.147-26.249H10.773a3.921,3.921,0,0,1-3.909-3.909V27.545a3.921,3.921,0,0,1,3.909-3.909h1.955V11.909A3.868,3.868,0,0,1,13.7,9.368c-.061-.066-.109-.143-.174-.205A3.821,3.821,0,0,0,10.773,8a3.921,3.921,0,0,0-3.909,3.909V23.636H4.909A3.921,3.921,0,0,0,1,27.545v3.909A3.921,3.921,0,0,0,4.909,35.364Z" transform="translate(0.955 5.799)"/>
      <path id="Shape-13" data-name="Shape" class="cls-4" d="M26.048,1l.436,3.884a15.55,15.55,0,0,0-11.356,7.159L11.821,9.96A19.454,19.454,0,0,1,26.048,1Z" transform="translate(11.284 -0.883)"/>
      <g id="Group_758" data-name="Group 758">
        <path id="Shape-14" data-name="Shape" d="M111.409,28.421V18.648a5.864,5.864,0,1,0-11.727,0v.489l-2.052-1.114-2.6-6.528A16.6,16.6,0,0,0,70.7,3.657L66.142,6.55l-1.349-.84A15.566,15.566,0,0,0,51.287,4.341L47.4,2.621A19.667,19.667,0,0,0,39.521.94a20.534,20.534,0,0,0-2.189.117,1.882,1.882,0,0,0-1.7,2.267,2.062,2.062,0,0,0,2.15,1.622,16.977,16.977,0,0,1,1.74-.1,16.027,16.027,0,0,1,6.294,1.329l1.016.469L44.466,8.055a1.959,1.959,0,1,0,2.013,3.362l4.085-2.443a11.622,11.622,0,0,1,12.177.059l5.844,3.6-17.747,5.9L38.016,13.879c-.43-.156-.88-.313-1.329-.43a19.471,19.471,0,0,0-11.239.2l.977-1.544A1.958,1.958,0,1,0,23.1,10.029l-4.456,7.134-1.134.7a5.85,5.85,0,0,0-11.649.782v9.773A5.881,5.881,0,0,0,0,34.284v3.909a5.881,5.881,0,0,0,5.864,5.864h2.4c.293,2.385.84,6.919,1.388,11.454C10.418,62,11.2,68.469,11.219,68.587A25.409,25.409,0,0,0,36.452,90.966H80.82a25.409,25.409,0,0,0,25.233-22.379c.02-.156,2.248-18.724,2.951-24.529h2.4a5.881,5.881,0,0,0,5.864-5.864V34.284A5.881,5.881,0,0,0,111.409,28.421Zm-7.818-9.773a1.955,1.955,0,0,1,3.909,0v9.773h-3.909ZM72.807,6.94A12.724,12.724,0,0,1,86.664,7.1a12.585,12.585,0,0,1,4.73,5.844l.88,2.209-4.535-2.443a19.491,19.491,0,0,0-14.249-1.661L69.855,8.817ZM17.591,22.42,23.083,19a15.658,15.658,0,0,1,12.548-1.8c.371.117.743.235,1.075.352l8.17,2.971-1.134.371a1.976,1.976,0,0,0-1.231,2.482,1.955,1.955,0,0,0,1.857,1.329,2.439,2.439,0,0,0,.625-.1l28.4-9.48c.078-.02.176-.059.371-.117A15.73,15.73,0,0,1,85.9,16.146l13.779,7.427v4.847H17.591ZM9.773,18.648a1.955,1.955,0,0,1,3.909,0v9.773H9.773Zm2.443,25.409h13.33l.606,7.818h-13C12.783,48.768,12.431,45.914,12.216,44.057Zm1.407,11.727H26.464l.586,7.818H14.561ZM17.337,75.33a21.385,21.385,0,0,1-2.248-7.212H15.05c0-.2-.02-.41-.039-.606H27.364l.078,1a35.3,35.3,0,0,0,1.192,6.821Zm2.58,3.909H29.983a23.292,23.292,0,0,0,5.2,7.74,21.57,21.57,0,0,1-15.265-7.74ZM30.979,63.6l-.606-7.818H45.345L45.58,63.6ZM45.7,67.512l.02.9c.059,2.4.254,4.71.489,6.919H32.719A32.261,32.261,0,0,1,31.331,68.2l-.059-.684ZM30.08,51.875l-.606-7.818H45.013l.215,7.818ZM44.368,87.057c-3.87,0-7.564-2.951-10.066-7.818H46.733a31.39,31.39,0,0,0,2.13,7.818Zm19.487,0H53.418c-.489-.371-1.759-2.4-2.736-7.818h15.91C65.614,84.653,64.343,86.686,63.855,87.057Zm3.792-18.764c-.059,2.463-.254,4.789-.508,7.036h-17c-.254-2.248-.45-4.574-.508-7.036l-.02-.782h18.06Zm.137-4.691H49.489l-.235-7.818H68.018Zm.352-11.727h-19l-.215-7.818H68.35ZM72.9,87.057h-4.5a31.389,31.389,0,0,0,2.13-7.818H82.97C80.468,84.106,76.774,87.057,72.9,87.057ZM86.9,55.784,86.293,63.6h-14.6l.235-7.818ZM72.044,51.875l.215-7.818H87.8l-.606,7.818ZM85.98,67.512l-.039.684a32.263,32.263,0,0,1-1.388,7.134H71.067c.235-2.209.43-4.515.489-6.919l.02-.9Zm-3.89,19.467a23.292,23.292,0,0,0,5.2-7.74H97.356A21.57,21.57,0,0,1,82.091,86.979Zm20.093-18.861a21.385,21.385,0,0,1-2.248,7.212h-11.3a35.3,35.3,0,0,0,1.192-6.821l.078-1h12.333c-.039.371-.059.586-.059.606Zm.528-4.515H90.221l.586-7.818h12.841C103.317,58.618,102.985,61.394,102.711,63.6Zm1.407-11.727h-13l.606-7.818h13.33C104.841,45.914,104.49,48.768,104.118,51.875Zm9.245-13.682a1.955,1.955,0,0,1-1.955,1.955H5.864a1.955,1.955,0,0,1-1.955-1.955V34.284A1.955,1.955,0,0,1,5.864,32.33H111.409a1.955,1.955,0,0,1,1.955,1.955Z" transform="translate(0 -0.94)"/>
        <path id="Shape-15" data-name="Shape" d="M16.451,6.209A1.955,1.955,0,0,1,16.429,2.3h.021a1.955,1.955,0,1,1,0,3.909Z" transform="translate(13.827 0.358)"/>
      </g>
    </g>
  </g>
</svg>
