<svg xmlns="http://www.w3.org/2000/svg" width="46.176" height="35.448" viewBox="0 0 46.176 35.448">
  <defs>
    <style>
      .cls-1 {
        fill: #e8edfc;
      }

      .cls-2 {
        fill: #cad9fc;
      }

      .cls-3 {
        fill: #a4c2f7;
      }

      .cls-4 {
        fill: #fff;
      }
    </style>
  </defs>
  <g id="Page-1" transform="translate(0 -0.94)">
    <g id="_021---Laundry-Basket" data-name="021---Laundry-Basket" transform="translate(0 0.94)">
      <rect id="Rectangle-path" class="cls-1" width="44.637" height="4.618" rx="2" transform="translate(0.77 11.59)"/>
      <path id="Shape" class="cls-2" d="M56.309,16H54a1.544,1.544,0,0,1,1.539,1.539v1.539A1.544,1.544,0,0,1,54,20.618h2.309a1.544,1.544,0,0,0,1.539-1.539V17.539A1.544,1.544,0,0,0,56.309,16Z" transform="translate(-12.442 -4.41)"/>
      <path id="Shape-2" data-name="Shape" class="cls-1" d="M7.078,9.539v4.618H4V9.539a1.539,1.539,0,0,1,3.078,0Z" transform="translate(-0.922 -2.567)"/>
      <path id="Shape-3" data-name="Shape" class="cls-1" d="M55.078,9.539v4.618H52V9.539a1.539,1.539,0,0,1,3.078,0Z" transform="translate(-11.981 -2.567)"/>
      <path id="Shape-4" data-name="Shape" class="cls-2" d="M43.415,22s-1.231,10.259-1.239,10.336A9.254,9.254,0,0,1,33,40.47H15.533a9.254,9.254,0,0,1-9.174-8.135S5.128,22.077,5.12,22Z" transform="translate(-1.18 -5.792)"/>
      <path id="Shape-5" data-name="Shape" class="cls-3" d="M48.763,22s-1.231,10.259-1.239,10.336A9.254,9.254,0,0,1,38.35,40.47h2.309a9.254,9.254,0,0,0,9.174-8.135C49.84,32.259,51.071,22,51.071,22Z" transform="translate(-8.836 -5.792)"/>
      <path id="Shape-6" data-name="Shape" class="cls-4" d="M41.862,10.733v3.14H8V10.317L9.747,9.224l.777-.485a6.9,6.9,0,0,1,5.557-.793c.162.046.323.1.477.154l5.287,1.924,8.712-2.9c.031-.008.069-.023.1-.031a6.914,6.914,0,0,1,5.372.5l3.648,1.962Z" transform="translate(-1.843 -2.283)"/>
      <path id="Shape-7" data-name="Shape" class="cls-1" d="M46.743,9.557,43.095,7.595a6.913,6.913,0,0,0-4.426-.721,6.913,6.913,0,0,1,2.117.721l3.648,1.962,2.186,1.177v3.14h2.309v-3.14Z" transform="translate(-8.909 -2.284)"/>
      <path id="Shape-8" data-name="Shape" class="cls-1" d="M31.18,5.98c-.031.008-.069.023-.1.031l-8.712,2.9L17.081,6.989c-.154-.054-.316-.108-.477-.154a6.9,6.9,0,0,0-5.557.793l-.777.485,1.847-2.955a6.919,6.919,0,0,1,2.747-2.494,6.789,6.789,0,0,1,3.063-.723,6.891,6.891,0,0,1,2.786.593l1.809.8h.008a5.4,5.4,0,0,1,4.941.369l.947.585Z" transform="translate(-2.366 -1.17)"/>
      <path id="Shape-9" data-name="Shape" class="cls-2" d="M31.709,4.578l-.947-.585a5.387,5.387,0,0,0-3.973-.666,5.375,5.375,0,0,1,1.665.666l.947.585,2.763,1.693c-.031.008-.069.023-.1.031L24.556,8.8l1.1.4,8.712-2.9c.031-.008.069-.023.1-.031Z" transform="translate(-5.658 -1.461)"/>
      <path id="Shape-10" data-name="Shape" class="cls-1" d="M45.633,8.457,41.985,6.495a6.914,6.914,0,0,0-5.372-.5L33.85,4.3l2.2-1.4A5.772,5.772,0,0,1,44.5,5.625Z" transform="translate(-7.799 -1.185)"/>
      <path id="Shape-11" data-name="Shape" class="cls-2" d="M41.279,2.972a5.74,5.74,0,0,1,2.155,2.655l.5,1.25L46.874,8.46,45.742,5.628a5.741,5.741,0,0,0-6.506-3.494,5.716,5.716,0,0,1,2.043.839Z" transform="translate(-9.04 -1.187)"/>
      <path id="Shape-12" data-name="Shape" class="cls-4" d="M2.539,18.774H4.171C4.178,18.851,5.41,29.11,5.41,29.11a9.254,9.254,0,0,0,9.174,8.135h2.309A9.254,9.254,0,0,1,7.719,29.11S6.487,18.851,6.48,18.774H4.848a1.544,1.544,0,0,1-1.539-1.539V15.7a1.544,1.544,0,0,1,1.539-1.539h.77V9.539a1.523,1.523,0,0,1,.385-1c-.024-.026-.043-.056-.068-.081A1.5,1.5,0,0,0,4.848,8,1.544,1.544,0,0,0,3.309,9.539v4.618h-.77A1.544,1.544,0,0,0,1,15.7v1.539A1.544,1.544,0,0,0,2.539,18.774Z" transform="translate(-0.23 -2.567)"/>
      <path id="Shape-13" data-name="Shape" class="cls-4" d="M17.423,1l.172,1.529a6.123,6.123,0,0,0-4.471,2.819l-1.3-.82A7.66,7.66,0,0,1,17.423,1Z" transform="translate(-2.724 -0.954)"/>
      <g id="Group_758" data-name="Group 758">
        <path id="Shape-14" data-name="Shape" d="M43.867,11.761V7.913a2.309,2.309,0,0,0-4.618,0V8.1l-.808-.439L37.418,5.1A6.537,6.537,0,0,0,27.836,2.01L26.043,3.149l-.531-.331a6.129,6.129,0,0,0-5.318-.539L18.663,1.6a7.744,7.744,0,0,0-3.1-.662A8.085,8.085,0,0,0,14.7.986a.741.741,0,0,0-.67.893.812.812,0,0,0,.847.639,6.685,6.685,0,0,1,.685-.038A6.311,6.311,0,0,1,18.039,3l.4.185-.931.554A.771.771,0,1,0,18.3,5.065L19.91,4.1a4.576,4.576,0,0,1,4.795.023l2.3,1.416L20.017,7.866,14.969,6.035c-.169-.062-.346-.123-.523-.169a7.667,7.667,0,0,0-4.425.077l.385-.608A.771.771,0,1,0,9.1,4.519L7.342,7.328,6.9,7.6a2.3,2.3,0,0,0-4.587.308v3.848A2.316,2.316,0,0,0,0,14.069v1.539a2.316,2.316,0,0,0,2.309,2.309h.947c.115.939.331,2.724.546,4.51.3,2.555.608,5.1.616,5.149a10,10,0,0,0,9.936,8.812h17.47a10,10,0,0,0,9.936-8.812c.008-.062.885-7.373,1.162-9.658h.947a2.316,2.316,0,0,0,2.309-2.309V14.069A2.316,2.316,0,0,0,43.867,11.761ZM40.789,7.913a.77.77,0,0,1,1.539,0v3.848H40.789ZM28.668,3.3a5.01,5.01,0,0,1,5.456.062,4.955,4.955,0,0,1,1.862,2.3l.346.87-1.785-.962a7.674,7.674,0,0,0-5.61-.654l-1.431-.877ZM6.926,9.4,9.089,8.051a6.165,6.165,0,0,1,4.941-.708c.146.046.292.092.423.139l3.217,1.17-.446.146a.778.778,0,0,0-.485.977.77.77,0,0,0,.731.523.96.96,0,0,0,.246-.038L28.9,6.527c.031-.008.069-.023.146-.046a6.194,6.194,0,0,1,4.779.446L39.25,9.852v1.909H6.926ZM3.848,7.913a.77.77,0,0,1,1.539,0v3.848H3.848Zm.962,10h5.249L10.3,21H5.179C5.033,19.772,4.895,18.648,4.81,17.917Zm.554,4.618H10.42l.231,3.078H5.734Zm1.462,7.7a8.42,8.42,0,0,1-.885-2.84H5.926c0-.077-.008-.162-.015-.239h4.864l.031.392a13.9,13.9,0,0,0,.469,2.686ZM7.842,31.77h3.963a9.171,9.171,0,0,0,2.047,3.048A8.493,8.493,0,0,1,7.842,31.77ZM12.2,25.613l-.239-3.078h5.9l.092,3.078Zm5.8,1.539.008.354c.023.947.1,1.855.192,2.724h-5.31a12.7,12.7,0,0,1-.546-2.809l-.023-.269ZM11.844,21l-.239-3.078h6.118L17.809,21ZM17.47,34.849c-1.524,0-2.978-1.162-3.963-3.078H18.4a12.36,12.36,0,0,0,.839,3.078Zm7.673,0h-4.11c-.192-.146-.693-.947-1.077-3.078H26.22C25.835,33.9,25.335,34.7,25.143,34.849Zm1.493-7.388c-.023.97-.1,1.886-.2,2.771h-6.7c-.1-.885-.177-1.8-.2-2.771l-.008-.308h7.111Zm.054-1.847h-7.2l-.092-3.078h7.388ZM26.828,21H19.348l-.085-3.078h7.65Zm1.878,13.853h-1.77a12.36,12.36,0,0,0,.839-3.078h4.895C31.684,33.686,30.23,34.849,28.706,34.849Zm5.51-12.314-.239,3.078H28.229l.092-3.078ZM28.367,21l.085-3.078H34.57L34.332,21Zm5.487,6.157-.015.269a12.7,12.7,0,0,1-.546,2.809h-5.31c.092-.87.169-1.778.192-2.724l.008-.354Zm-1.532,7.665A9.171,9.171,0,0,0,34.37,31.77h3.963A8.493,8.493,0,0,1,32.323,34.818Zm7.911-7.427a8.42,8.42,0,0,1-.885,2.84H34.9a13.9,13.9,0,0,0,.469-2.686l.031-.392h4.856c-.015.146-.023.231-.023.239Zm.208-1.778H35.525l.231-3.078h5.056C40.681,23.651,40.55,24.744,40.442,25.613ZM41,21H35.879l.239-3.078h5.249C41.281,18.648,41.143,19.772,41,21Zm3.64-5.387a.77.77,0,0,1-.77.77H2.309a.77.77,0,0,1-.77-.77V14.069a.77.77,0,0,1,.77-.77H43.867a.77.77,0,0,1,.77.77Z" transform="translate(0 -0.94)"/>
        <path id="Shape-15" data-name="Shape" d="M15.259,3.839A.77.77,0,0,1,15.251,2.3h.008a.77.77,0,1,1,0,1.539Z" transform="translate(-3.337 -1.253)"/>
      </g>
    </g>
  </g>
</svg>
