<svg xmlns="http://www.w3.org/2000/svg" width="80.338" height="61.673" viewBox="0 0 80.338 61.673">
  <defs>
    <style>
      .cls-1 {
        fill: #e8edfc;
      }

      .cls-2 {
        fill: #cad9fc;
      }

      .cls-3 {
        fill: #a4c2f7;
      }

      .cls-4 {
        fill: #fff;
      }

      .cls-5 {
        fill: #5780d9;
      }
    </style>
  </defs>
  <g id="Page-1" transform="translate(0 -0.94)">
    <g id="_021---Laundry-Basket" data-name="021---Laundry-Basket" transform="translate(0 0.94)">
      <rect id="Rectangle-path" class="cls-1" width="77.66" height="8.034" rx="2" transform="translate(1.339 20.165)"/>
      <path id="Shape" class="cls-2" d="M58.017,16H54a2.686,2.686,0,0,1,2.678,2.678v2.678A2.686,2.686,0,0,1,54,24.034h4.017a2.686,2.686,0,0,0,2.678-2.678V18.678A2.686,2.686,0,0,0,58.017,16Z" transform="translate(18.304 4.165)"/>
      <path id="Shape-2" data-name="Shape" class="cls-1" d="M9.356,10.678v8.034H4V10.678a2.678,2.678,0,0,1,5.356,0Z" transform="translate(1.356 1.453)"/>
      <path id="Shape-3" data-name="Shape" class="cls-1" d="M57.356,10.678v8.034H52V10.678a2.678,2.678,0,0,1,5.356,0Z" transform="translate(17.626 1.453)"/>
      <path id="Shape-4" data-name="Shape" class="cls-2" d="M71.747,22S69.6,39.848,69.591,39.982a16.1,16.1,0,0,1-15.96,14.153H23.236A16.1,16.1,0,0,1,7.276,39.982S5.133,22.134,5.12,22Z" transform="translate(1.735 6.199)"/>
      <path id="Shape-5" data-name="Shape" class="cls-3" d="M56.466,22S54.324,39.848,54.31,39.982A16.1,16.1,0,0,1,38.35,54.135h4.017a16.1,16.1,0,0,0,15.96-14.153C58.341,39.848,60.483,22,60.483,22Z" transform="translate(12.999 6.199)"/>
      <path id="Shape-6" data-name="Shape" class="cls-4" d="M66.914,13.667V19.13H8V12.944l3.039-1.9,1.352-.844A12.008,12.008,0,0,1,22.059,8.82c.281.08.562.174.83.268l9.2,3.347L47.245,7.387c.054-.013.121-.04.174-.054a12.029,12.029,0,0,1,9.346.87l6.347,3.414Z" transform="translate(2.712 1.035)"/>
      <path id="Shape-7" data-name="Shape" class="cls-1" d="M52.716,11.615,46.369,8.2a12.027,12.027,0,0,0-7.7-1.255A12.028,12.028,0,0,1,42.352,8.2L48.7,11.615l3.8,2.049v5.463h4.017V13.664Z" transform="translate(13.107 1.038)"/>
      <path id="Shape-8" data-name="Shape" class="cls-1" d="M46.65,8.97c-.054.013-.121.04-.174.054L31.319,14.071l-9.2-3.347c-.268-.094-.549-.187-.83-.268a12.008,12.008,0,0,0-9.667,1.379l-1.352.844,3.214-5.142A12.037,12.037,0,0,1,18.264,3.2,11.811,11.811,0,0,1,23.593,1.94,11.989,11.989,0,0,1,28.44,2.971l3.147,1.393H31.6a9.4,9.4,0,0,1,8.6.643l1.647,1.018Z" transform="translate(3.481 -0.601)"/>
      <path id="Shape-9" data-name="Shape" class="cls-2" d="M37,5.6,35.353,4.579A9.373,9.373,0,0,0,28.44,3.42a9.351,9.351,0,0,1,2.9,1.16L32.983,5.6,37.79,8.543c-.054.013-.121.04-.174.054l-13.06,4.349,1.92.7L41.633,8.6c.054-.013.121-.04.174-.054Z" transform="translate(8.324 -0.174)"/>
      <path id="Shape-10" data-name="Shape" class="cls-1" d="M54.35,13.233,48,9.819a12.029,12.029,0,0,0-9.346-.87L33.85,6l3.829-2.437a10.042,10.042,0,0,1,14.7,4.74Z" transform="translate(11.474 -0.58)"/>
      <path id="Shape-11" data-name="Shape" class="cls-2" d="M42.79,3.683A9.987,9.987,0,0,1,46.539,8.3l.869,2.174,5.116,2.753L50.556,8.3a9.989,9.989,0,0,0-11.32-6.079A9.944,9.944,0,0,1,42.79,3.683Z" transform="translate(13.3 -0.577)"/>
      <path id="Shape-12" data-name="Shape" class="cls-4" d="M3.678,26.746H6.517c.013.134,2.156,17.982,2.156,17.982a16.1,16.1,0,0,0,15.96,14.153H28.65a16.1,16.1,0,0,1-15.96-14.153s-2.142-17.848-2.156-17.982H7.695a2.686,2.686,0,0,1-2.678-2.678V21.39a2.686,2.686,0,0,1,2.678-2.678H9.034V10.678A2.65,2.65,0,0,1,9.7,8.937c-.042-.046-.075-.1-.119-.141A2.618,2.618,0,0,0,7.695,8a2.686,2.686,0,0,0-2.678,2.678v8.034H3.678A2.686,2.686,0,0,0,1,21.39v2.678A2.686,2.686,0,0,0,3.678,26.746Z" transform="translate(0.339 1.453)"/>
      <path id="Shape-13" data-name="Shape" class="cls-4" d="M21.567,1l.3,2.661a10.653,10.653,0,0,0-7.779,4.9L11.821,7.138A13.327,13.327,0,0,1,21.567,1Z" transform="translate(4.007 -0.92)"/>
      <g id="Group_758" data-name="Group 758">
        <path id="Shape-14" data-name="Shape" d="M76.321,19.766V13.071a4.017,4.017,0,0,0-8.034,0v.335l-1.406-.763L65.1,8.17A11.373,11.373,0,0,0,48.43,2.8l-3.12,1.982-.924-.576a10.664,10.664,0,0,0-9.252-.937L32.47,2.092A13.473,13.473,0,0,0,27.074.94a14.067,14.067,0,0,0-1.5.08,1.289,1.289,0,0,0-1.165,1.553,1.413,1.413,0,0,0,1.473,1.111,11.63,11.63,0,0,1,1.192-.067,10.98,10.98,0,0,1,4.311.91l.7.321-1.62.964a1.342,1.342,0,1,0,1.379,2.3l2.8-1.674a7.961,7.961,0,0,1,8.342.04l4,2.464L34.826,12.991,26.043,9.8c-.295-.107-.6-.214-.91-.295a13.339,13.339,0,0,0-7.7.134L18.1,8.585a1.341,1.341,0,1,0-2.276-1.419l-3.053,4.887L12,12.535a4.008,4.008,0,0,0-7.98.536v6.695A4.029,4.029,0,0,0,0,23.783v2.678a4.029,4.029,0,0,0,4.017,4.017H5.664c.2,1.634.576,4.74.951,7.846.522,4.445,1.058,8.877,1.071,8.958A17.407,17.407,0,0,0,24.972,62.613H55.366A17.407,17.407,0,0,0,72.652,47.282c.013-.107,1.54-12.827,2.022-16.8h1.647a4.029,4.029,0,0,0,4.017-4.017V23.783A4.029,4.029,0,0,0,76.321,19.766Zm-5.356-6.695a1.339,1.339,0,0,1,2.678,0v6.695H70.965ZM49.876,5.051a8.717,8.717,0,0,1,9.493.107,8.622,8.622,0,0,1,3.24,4l.6,1.513L60.106,9a13.352,13.352,0,0,0-9.761-1.138l-2.49-1.526Zm-37.826,10.6,3.762-2.343a10.726,10.726,0,0,1,8.6-1.232c.254.08.509.161.736.241l5.6,2.035-.777.254a1.354,1.354,0,0,0-.844,1.7,1.339,1.339,0,0,0,1.272.91,1.671,1.671,0,0,0,.428-.067l19.455-6.494c.054-.013.121-.04.254-.08a10.776,10.776,0,0,1,8.315.777l9.44,5.088v3.321H12.051ZM6.695,13.071a1.339,1.339,0,1,1,2.678,0v6.695H6.695ZM8.369,30.478H17.5l.415,5.356h-8.9C8.757,33.7,8.516,31.75,8.369,30.478Zm.964,8.034h8.8l.4,5.356H9.975ZM11.877,51.9a14.65,14.65,0,0,1-1.54-4.941H10.31c0-.134-.013-.281-.027-.415h8.462l.054.683a24.182,24.182,0,0,0,.817,4.673Zm1.767,2.678h6.9a15.956,15.956,0,0,0,3.562,5.3,14.777,14.777,0,0,1-10.457-5.3Zm7.579-10.712-.415-5.356H31.064l.161,5.356ZM31.3,46.545l.013.616c.04,1.647.174,3.227.335,4.74H22.414a22.1,22.1,0,0,1-.951-4.887l-.04-.469Zm-10.7-10.712-.415-5.356H30.836l.147,5.356Zm9.788,24.1c-2.651,0-5.182-2.022-6.9-5.356h8.516a21.5,21.5,0,0,0,1.459,5.356Zm13.349,0h-7.15c-.335-.254-1.205-1.647-1.875-5.356h10.9C44.949,58.288,44.079,59.68,43.744,59.935Zm2.6-12.854c-.04,1.687-.174,3.28-.348,4.82H34.344c-.174-1.54-.308-3.133-.348-4.82l-.013-.536H46.355Zm.094-3.214H33.9l-.161-5.356H46.6Zm.241-8.034H33.662l-.147-5.356H46.824Zm3.267,24.1h-3.08a21.5,21.5,0,0,0,1.459-5.356h8.516C55.125,57.913,52.595,59.935,49.943,59.935ZM59.53,38.511l-.415,5.356h-10l.161-5.356ZM49.354,35.833l.147-5.356H60.146l-.415,5.356ZM58.9,46.545l-.027.469a22.1,22.1,0,0,1-.951,4.887H48.685c.161-1.513.295-3.093.335-4.74l.013-.616ZM56.237,59.881a15.956,15.956,0,0,0,3.562-5.3h6.9A14.777,14.777,0,0,1,56.237,59.881ZM70,46.96a14.65,14.65,0,0,1-1.54,4.941H60.722a24.182,24.182,0,0,0,.817-4.673l.054-.683h8.449c-.027.254-.04.4-.04.415Zm.362-3.093H61.807l.4-5.356h8.8C70.778,40.453,70.55,42.354,70.363,43.867Zm.964-8.034h-8.9l.415-5.356h9.132C71.822,31.75,71.581,33.7,71.327,35.833Zm6.333-9.373A1.339,1.339,0,0,1,76.321,27.8H4.017a1.339,1.339,0,0,1-1.339-1.339V23.783a1.339,1.339,0,0,1,1.339-1.339h72.3a1.339,1.339,0,0,1,1.339,1.339Z" transform="translate(0 -0.94)"/>
        <path id="Shape-15" data-name="Shape" class="cls-5" d="M15.832,4.978A1.339,1.339,0,0,1,15.817,2.3h.015a1.339,1.339,0,1,1,0,2.678Z" transform="translate(4.91 -0.479)"/>
      </g>
    </g>
  </g>
</svg>
