<svg xmlns="http://www.w3.org/2000/svg" width="20.186" height="20.184" viewBox="0 0 20.186 20.184">
  <defs>
    <style>
      .cls-1 {
        stroke: #000;
        stroke-width: 0.3px;
      }
    </style>
  </defs>
  <g id="box" transform="translate(-4.41 -4.408)">
    <path id="Path_1404" data-name="Path 1404" class="cls-1" d="M24.439,59.641,23.32,54.355a.293.293,0,0,0-.286-.232H5.972a.293.293,0,0,0-.286.232L4.568,59.641a.293.293,0,0,0,.286.353H5.68v5.43a.293.293,0,0,0,.293.293H23.034a.293.293,0,0,0,.293-.293v-5.43h.826a.293.293,0,0,0,.286-.353ZM6.209,54.708h7.933l-.995,4.7H5.215Zm.055,5.286h7.12a.292.292,0,0,0,.286-.232l.54-2.55v7.919H6.265Zm16.477,5.137H14.8V57.212l.54,2.55a.292.292,0,0,0,.286.232h7.12Zm-6.883-5.722-.995-4.7H22.8l.995,4.7Z" transform="translate(0 -41.275)"/>
    <path id="Path_1405" data-name="Path 1405" class="cls-1" d="M22.6,110.813H20.371a.293.293,0,0,0,0,.585H22.6a.293.293,0,0,0,0-.585Z" transform="translate(-12.921 -88.483)"/>
    <path id="Path_1406" data-name="Path 1406" class="cls-1" d="M41.3,110.813h-.661a.293.293,0,0,0,0,.585H41.3a.293.293,0,0,0,0-.585Z" transform="translate(-29.797 -88.483)"/>
    <path id="Path_1407" data-name="Path 1407" class="cls-1" d="M95.7,63.155H93.475a.293.293,0,0,0,0,.585H95.7a.293.293,0,1,0,0-.585Z" transform="translate(-73.798 -48.796)"/>
    <path id="Path_1408" data-name="Path 1408" class="cls-1" d="M83.245,63.155h-.661a.293.293,0,0,0,0,.585h.661a.293.293,0,0,0,0-.585Z" transform="translate(-64.729 -48.796)"/>
    <path id="Path_1409" data-name="Path 1409" class="cls-1" d="M45.829,11.857a3.65,3.65,0,1,0-3.65-3.65,3.65,3.65,0,0,0,3.65,3.65Zm0-6.714a3.064,3.064,0,1,1-3.064,3.064A3.064,3.064,0,0,1,45.829,5.143Z" transform="translate(-31.326)"/>
    <path id="Path_1410" data-name="Path 1410" class="cls-1" d="M54.677,21.111a.293.293,0,0,0,.414,0l1.948-1.949a.293.293,0,0,0-.414-.414L54.884,20.49l-.716-.715a.293.293,0,1,0-.414.414Z" transform="translate(-40.894 -11.746)"/>
  </g>
</svg>
