<svg xmlns="http://www.w3.org/2000/svg" width="19.328" height="19.33" viewBox="0 0 19.328 19.33">
  <defs>
    <style>
      .cls-1 {
        fill: #787878;
      }
    </style>
  </defs>
  <path id="home-run" class="cls-1" d="M19.309,8.408h0L11.422.521a1.779,1.779,0,0,0-2.517,0L1.024,8.4l-.008.008A1.779,1.779,0,0,0,2.2,11.442l.055,0h.314v5.8A2.085,2.085,0,0,0,4.652,19.33H7.737a.566.566,0,0,0,.566-.566V14.214a.951.951,0,0,1,.95-.95h1.82a.951.951,0,0,1,.95.95v4.549a.566.566,0,0,0,.566.566h3.085a2.085,2.085,0,0,0,2.083-2.083v-5.8h.291a1.78,1.78,0,0,0,1.259-3.037Zm-.8,1.715a.643.643,0,0,1-.457.19h-.858a.566.566,0,0,0-.566.566v6.369a.951.951,0,0,1-.95.95H13.156V14.214a2.085,2.085,0,0,0-2.083-2.083H9.254a2.085,2.085,0,0,0-2.083,2.083V18.2H4.652a.951.951,0,0,1-.95-.95V10.879a.566.566,0,0,0-.566-.566h-.87a.646.646,0,0,1-.446-1.1h0L9.706,1.322a.647.647,0,0,1,.915,0L18.5,9.205l0,0A.648.648,0,0,1,18.507,10.123Zm0,0" transform="translate(-0.499)"/>
</svg>
