<svg xmlns="http://www.w3.org/2000/svg" width="133.652" height="131.438" viewBox="0 0 133.652 131.438">
  <defs>
    <style>
      .cls-1 {
        fill: #edf3f4;
      }

      .cls-2 {
        fill: #bfced8;
      }

      .cls-3 {
        fill: #b5c4cf;
      }

      .cls-4 {
        fill: #d7e7ec;
        opacity: 0.536;
      }

      .cls-5 {
        fill: #fff;
      }
    </style>
  </defs>
  <g id="location" transform="translate(0 -5.241)">
    <g id="Group_765" data-name="Group 765" transform="translate(2.257 7.479)">
      <path id="Path_1276" data-name="Path 1276" class="cls-1" d="M102.566,370.213h15.876a4.71,4.71,0,0,1,4.121,2.359l13.7,24.5a4.455,4.455,0,0,1-4.121,6.551H12.293a4.455,4.455,0,0,1-4.121-6.551l13.7-24.5a4.709,4.709,0,0,1,4.121-2.359Z" transform="translate(-7.646 -276.654)"/>
      <path id="Path_1277" data-name="Path 1277" class="cls-2" d="M220.331,403.626H127s44.552-4.455,55.689-33.414h23.946a4.689,4.689,0,0,1,4.121,2.361l13.7,24.5a4.455,4.455,0,0,1-4.121,6.549Z" transform="translate(-95.84 -276.654)"/>
      <path id="Path_1278" data-name="Path 1278" class="cls-3" d="M211.42,403.626H127s44.552-4.455,55.689-33.414h15.036a4.689,4.689,0,0,1,4.121,2.361l13.7,24.5a4.455,4.455,0,0,1-4.121,6.549Z" transform="translate(-95.84 -276.654)"/>
      <path id="Path_1279" data-name="Path 1279" class="cls-3" d="M177.508,54.2c0,5.836-2.651,13.232-6.616,21.028a198.153,198.153,0,0,1-14.546,23.434c-5.3,7.462-10.581,14.19-14.546,19.046-1.2,1.492-2.294,2.785-3.208,3.9a4.442,4.442,0,0,1-6.75.067l-.067-.067c-.913-1.114-2-2.406-3.208-3.9-3.965-4.856-9.267-11.583-14.546-19.046A195.268,195.268,0,0,1,99.476,75.233c-3.965-7.8-6.616-15.192-6.616-21.028A42.324,42.324,0,0,1,118.7,15.155a41.813,41.813,0,0,1,13.143-3.208c1.091-.089,2.227-.134,3.341-.134A42.325,42.325,0,0,1,177.508,54.2Z" transform="translate(-70.615 -11.814)"/>
      <path id="Path_1280" data-name="Path 1280" class="cls-1" d="M170.825,54.583c0,5.836-2.651,13.232-6.616,21.028a198.157,198.157,0,0,1-14.546,23.434c-5.3,7.462-10.581,14.19-14.546,19.046-1.2,1.492-2.294,2.785-3.208,3.9l-.067.067-.067-.067c-.913-1.114-2-2.406-3.208-3.9-3.965-4.856-9.267-11.583-14.546-19.046A195.269,195.269,0,0,1,99.476,75.611c-3.965-7.8-6.616-15.192-6.616-21.028A42.324,42.324,0,0,1,118.7,15.534a41.812,41.812,0,0,1,13.143-3.208,41.813,41.813,0,0,1,13.143,3.208A42.3,42.3,0,0,1,170.825,54.583Z" transform="translate(-70.615 -12.192)"/>
      <path id="Path_1281" data-name="Path 1281" class="cls-3" d="M218.355,108.661a20.08,20.08,0,0,1-20.048,20.048,20.7,20.7,0,0,1-3.341-.267,20.068,20.068,0,0,1,0-39.562,20.7,20.7,0,0,1,3.341-.267A20.08,20.08,0,0,1,218.355,108.661Z" transform="translate(-133.738 -68.565)"/>
      <path id="Path_1282" data-name="Path 1282" class="cls-4" d="M211.672,109.418A20.12,20.12,0,0,1,194.965,129.2a20.068,20.068,0,0,1,0-39.562A20.12,20.12,0,0,1,211.672,109.418Z" transform="translate(-133.738 -69.321)"/>
      <g id="Group_764" data-name="Group 764" transform="translate(0.005 0)">
        <path id="Path_1283" data-name="Path 1283" class="cls-5" d="M12.306,403.625h6.683a4.455,4.455,0,0,1-4.121-6.551l13.7-24.5a4.709,4.709,0,0,1,4.121-2.359H26a4.71,4.71,0,0,0-4.117,2.359L8.19,397.074a4.455,4.455,0,0,0,4.116,6.551Z" transform="translate(-7.664 -276.654)"/>
        <path id="Path_1284" data-name="Path 1284" class="cls-5" d="M114.023,98.666c1.642,2.321,3.283,4.56,4.9,6.7h6.683c-1.606-2.145-3.248-4.384-4.9-6.7a195.267,195.267,0,0,1-14.546-23.434c-3.965-7.8-6.616-15.192-6.616-21.028a42.324,42.324,0,0,1,25.84-39.049,41.854,41.854,0,0,1,12.936-3.183c-1.038-.076-2.076-.158-3.134-.158-1.114,0-2.25.045-3.341.134A41.813,41.813,0,0,0,118.7,15.154,42.3,42.3,0,0,0,92.861,54.2c0,5.836,2.651,13.232,6.616,21.028A195.3,195.3,0,0,0,114.023,98.666Z" transform="translate(-70.621 -11.813)"/>
      </g>
    </g>
    <g id="Group_767" data-name="Group 767" transform="translate(0 5.241)">
      <path id="Path_1285" data-name="Path 1285" class="cls-5" d="M22.973,368.135a2.582,2.582,0,0,0-1.758.684,2.058,2.058,0,0,0-.3.345c-.049.06-.08.127-.122.189l-.223.4-.891,1.579-3.524,6.32L9.1,390.289l-2,3.564-3.878-2.17,2-3.564,7.055-12.633,3.531-6.32.891-1.579.223-.394a5.792,5.792,0,0,1,.363-.575,6.7,6.7,0,0,1,.891-1.022,7.035,7.035,0,0,1,4.8-1.916v4.455Z" transform="translate(-2.374 -270.112)"/>
      <g id="Group_766" data-name="Group 766" transform="translate(0 0)">
        <path id="Path_1286" data-name="Path 1286" d="M48.4,373.647a2.228,2.228,0,0,0,3.029-.858l1.087-1.945.543-.973.272-.486a2.4,2.4,0,0,1,.16-.247,2.521,2.521,0,0,1,2.034-1H71.4a2.227,2.227,0,1,0,0-4.455H55.525a6.981,6.981,0,0,0-5.642,2.842,7.936,7.936,0,0,0-.446.688l-.256.479-.543.973-1.085,1.945a2.227,2.227,0,0,0,.847,3.038Z" transform="translate(-34.926 -270.112)"/>
        <path id="Path_1287" data-name="Path 1287" d="M30.99,419.273a2.228,2.228,0,0,0,.653.568,2.347,2.347,0,0,0,1.7.207,2.257,2.257,0,0,0,1.544-2.76l-.16-.4a1.707,1.707,0,0,0-.254-.372,1.379,1.379,0,0,0-.285-.312,3.562,3.562,0,0,0-.365-.256,2.339,2.339,0,0,0-1.7-.207,2.2,2.2,0,0,0-1.13,3.529Z" transform="translate(-22.526 -308.53)"/>
        <path id="Path_1288" data-name="Path 1288" d="M106.9,95.622c5.5,7.761,11,14.7,14.642,19.173.53.651,1.027,1.254,1.508,1.835H112.06a2.227,2.227,0,0,0,0,4.455H147.7a2.227,2.227,0,1,0,0-4.455H136.71c.481-.581.978-1.185,1.51-1.835,3.64-4.455,9.133-11.412,14.64-19.173a195.718,195.718,0,0,0,14.715-23.717c4.549-8.933,6.857-16.348,6.857-22.042a44.521,44.521,0,0,0-13.047-31.545,2.228,2.228,0,1,0-3.152,3.147,40.083,40.083,0,0,1,11.744,28.4c0,4.985-2.143,11.721-6.371,20.019a191.3,191.3,0,0,1-14.381,23.167c-5.431,7.661-10.859,14.524-14.457,18.934-1.2,1.466-2.272,2.762-3.19,3.858a2.257,2.257,0,0,1-3.395,0c-.918-1.1-1.994-2.392-3.19-3.858-3.6-4.408-9.026-11.272-14.457-18.934A191.3,191.3,0,0,1,96.155,69.882c-4.232-8.3-6.371-15.034-6.371-20.019a40.107,40.107,0,0,1,55.711-37,2.228,2.228,0,0,0,1.74-4.1A44.569,44.569,0,0,0,85.329,49.863c0,5.694,2.308,13.109,6.857,22.053A195.685,195.685,0,0,0,106.9,95.622Z" transform="translate(-63.054 -5.241)"/>
        <path id="Path_1289" data-name="Path 1289" d="M192.93,86.536a2.227,2.227,0,1,0,0-4.455,22.276,22.276,0,1,0,15.751,6.525,2.228,2.228,0,1,0-3.15,3.15,17.821,17.821,0,1,1-12.6-5.219Z" transform="translate(-126.104 -62.022)"/>
        <path id="Path_1290" data-name="Path 1290" d="M6.9,401.548H126.748a6.861,6.861,0,0,0,6-3.382,6.46,6.46,0,0,0,.069-6.485l-13.7-24.5a6.924,6.924,0,0,0-6.061-3.5H97.177a2.227,2.227,0,1,0,0,4.455h15.876a2.471,2.471,0,0,1,2.176,1.216l13.7,24.5a2,2,0,0,1-.02,2.058,2.45,2.45,0,0,1-2.156,1.181H6.9a2.45,2.45,0,0,1-2.154-1.181,2,2,0,0,1-.022-2.056l2-3.564,1.087-1.945a2.232,2.232,0,0,0-3.9-2.17l-1.087,1.945L.839,391.686a6.46,6.46,0,0,0,.069,6.485A6.861,6.861,0,0,0,6.9,401.548Z" transform="translate(0 -270.11)"/>
        <path id="Path_1291" data-name="Path 1291" d="M367.681,406.347h-8.91a2.241,2.241,0,0,0-1.236.374l-6.683,4.455a2.228,2.228,0,0,0,2.473,3.707l6.115-4.081h8.242a2.228,2.228,0,0,0,0-4.456Z" transform="translate(-258.531 -301.641)"/>
        <path id="Path_1292" data-name="Path 1292" d="M366.928,459.775A2.228,2.228,0,0,0,369.155,462h17.821a2.227,2.227,0,1,0,0-4.455H369.155A2.228,2.228,0,0,0,366.928,459.775Z" transform="translate(-271.144 -339.475)"/>
        <path id="Path_1293" data-name="Path 1293" d="M103.149,415.257a2.228,2.228,0,0,0,1.239-4.081l-6.683-4.455a2.241,2.241,0,0,0-1.239-.374h-8.91a2.227,2.227,0,1,0,0,4.455H95.8l6.121,4.081A2.224,2.224,0,0,0,103.149,415.257Z" transform="translate(-63.054 -301.64)"/>
        <path id="Path_1294" data-name="Path 1294" d="M61.956,457.547a2.227,2.227,0,1,0,0,4.455H79.777a2.227,2.227,0,1,0,0-4.455Z" transform="translate(-44.137 -339.475)"/>
      </g>
    </g>
  </g>
</svg>
