<svg id="bell_1_" data-name="bell (1)" xmlns="http://www.w3.org/2000/svg" width="125.976" height="136.921" viewBox="0 0 125.976 136.921">
  <defs>
    <style>
      .cls-1 {
        fill: #edf3f4;
      }

      .cls-2 {
        fill: #b5c4cf;
      }
    </style>
  </defs>
  <path id="Path_1295" data-name="Path 1295" class="cls-1" d="M146.714,128.519H44.582c4.68,0,7.326-2.449,8.828-6.507C60.676,102.413,41.323,45.3,95.65,45.3s34.97,57.113,42.236,76.711C139.39,126.07,142.037,128.519,146.714,128.519Zm0,0" transform="translate(-32.66 -33.186)"/>
  <path id="Path_1296" data-name="Path 1296" class="cls-2" d="M129.514,366.372a9.889,9.889,0,0,1-9.888,9.888H17.494a9.888,9.888,0,1,1,0-19.776H119.626a9.887,9.887,0,0,1,9.888,9.887Zm0,0" transform="translate(-5.572 -261.152)"/>
  <path id="Path_1297" data-name="Path 1297" class="cls-2" d="M137.889,122.017H84.8A10.132,10.132,0,0,1,74.684,111.56c.748-24.2-3.112-65.794,20.571-66.251-65.009.336-23.453,83.216-50.668,83.216H146.717C142.04,128.524,139.393,126.076,137.889,122.017Zm0,0" transform="translate(-32.663 -33.192)"/>
  <path id="Path_1298" data-name="Path 1298" class="cls-1" d="M207.791,366.372a9.889,9.889,0,0,1-9.888,9.888H124.344a9.888,9.888,0,0,1,0-19.776H197.9a9.887,9.887,0,0,1,9.888,9.887Zm0,0" transform="translate(-83.849 -261.152)"/>
  <path id="Path_1299" data-name="Path 1299" class="cls-2" d="M201.137,430.434a19.777,19.777,0,1,1-39.555,0Zm0,0" transform="translate(-118.371 -315.326)"/>
  <path id="Path_1300" data-name="Path 1300" class="cls-1" d="M238.84,453.246a19.824,19.824,0,0,1-13.532,12.963,19.8,19.8,0,0,1-10.088-6.618,3.911,3.911,0,0,1,3.071-6.345Zm0,0" transform="translate(-157.031 -332.037)"/>
  <path id="Path_1301" data-name="Path 1301" class="cls-2" d="M217.979,18.442c.022-.25.03-.5.03-.756a10.081,10.081,0,0,0-20.161,0c0,.255.007.507.029.756" transform="translate(-144.939 -5.572)"/>
  <path id="Path_1302" data-name="Path 1302" d="M114.054,93.3h-.008c-3.937,0-6.16-2.045-7.432-6.828-1.3-4.891-1.344-11.984-1.39-19.494-.055-9.1-.118-19.411-2.38-28.634a2.034,2.034,0,0,0-3.951.968c2.149,8.758,2.209,18.817,2.264,27.691.048,7.776.092,15.121,1.526,20.513a16.338,16.338,0,0,0,2.673,5.783H20.621a16.338,16.338,0,0,0,2.673-5.783C24.728,82.122,24.773,74.777,24.82,67c.072-11.872.155-25.328,5.012-35.626C35.3,19.783,46.145,14.147,62.989,14.147c9.25,0,16.819,1.738,22.5,5.168a27.294,27.294,0,0,1,11.05,12.918A2.034,2.034,0,0,0,100.26,30.6,31.653,31.653,0,0,0,87.589,15.833,38.592,38.592,0,0,0,75.065,11.18a12.111,12.111,0,0,0-24.15,0,38.959,38.959,0,0,0-12.026,4.355,31.359,31.359,0,0,0-12.736,14.1c-5.24,11.11-5.325,25.043-5.4,37.336-.046,7.51-.089,14.6-1.39,19.494-1.272,4.782-3.5,6.826-7.432,6.828h-.008a11.923,11.923,0,0,0,0,23.846H24.793a2.033,2.033,0,1,0,0-4.067H11.922a7.856,7.856,0,0,1,0-15.711H114.055a7.856,7.856,0,0,1,0,15.711H32.928a2.033,2.033,0,0,0,0,4.067h8.348a21.808,21.808,0,0,0,43.426,0h29.353a11.923,11.923,0,0,0,0-23.846ZM62.989,4.067a8.062,8.062,0,0,1,7.89,6.462,69.752,69.752,0,0,0-15.779,0A8.06,8.06,0,0,1,62.989,4.067Zm0,128.787a17.768,17.768,0,0,1-17.625-15.711H80.613A17.768,17.768,0,0,1,62.989,132.854Zm0,0"/>
  <path id="Path_1303" data-name="Path 1303" d="M354.783,37.285A26.377,26.377,0,0,1,362,44.172c4.772,6.429,7.19,14.46,7.19,23.871a2.034,2.034,0,1,0,4.068,0c0-12.955-4.424-21.555-8.136-26.486a29.721,29.721,0,0,0-8.368-7.827,2.034,2.034,0,0,0-1.973,3.557Zm0,0" transform="translate(-259.144 -24.523)"/>
  <path id="Path_1304" data-name="Path 1304" d="M412.466,40.26c.327.214,8.014,5.374,8.014,18.354a2.033,2.033,0,0,0,4.067,0c0-15.31-9.484-21.522-9.888-21.779a2.034,2.034,0,0,0-2.193,3.425Zm0,0" transform="translate(-301.484 -26.752)"/>
  <path id="Path_1305" data-name="Path 1305" d="M46.38,70.075a2.034,2.034,0,0,0,2.034-2.034c0-9.411,2.419-17.442,7.19-23.871a26.464,26.464,0,0,1,7.218-6.886,2.034,2.034,0,0,0-1.972-3.557,29.722,29.722,0,0,0-8.368,7.827c-3.711,4.932-8.134,13.531-8.134,26.486A2.033,2.033,0,0,0,46.38,70.075Zm0,0" transform="translate(-32.488 -24.522)"/>
  <path id="Path_1306" data-name="Path 1306" d="M12.925,60.647a2.032,2.032,0,0,0,2.033-2.033c0-12.97,7.676-18.133,8.014-18.353a2.034,2.034,0,0,0-2.193-3.425c-.4.257-9.888,6.468-9.888,21.778A2.033,2.033,0,0,0,12.925,60.647Zm0,0" transform="translate(-7.978 -26.752)"/>
</svg>
