<svg xmlns="http://www.w3.org/2000/svg" width="15.805" height="19.471" viewBox="0 0 15.805 19.471">
  <defs>
    <style>
      .cls-1 {
        fill: #787878;
      }
    </style>
  </defs>
  <g id="test_1_" data-name="test (1)" transform="translate(-48.2)">
    <path id="Path_1227" data-name="Path 1227" class="cls-1" d="M63.838,5.055,58.95.167a.57.57,0,0,0-.4-.167H50.3a2.1,2.1,0,0,0-2.1,2.1V17.373a2.1,2.1,0,0,0,2.1,2.1H61.907a2.1,2.1,0,0,0,2.1-2.1V5.458a.57.57,0,0,0-.167-.4ZM59.117,1.948l2.94,2.94H60.074a.958.958,0,0,1-.957-.957Zm2.79,16.382H50.3a.958.958,0,0,1-.957-.957V2.1a.958.958,0,0,1,.957-.957h7.678v2.79a2.1,2.1,0,0,0,2.1,2.1h2.79V17.373A.958.958,0,0,1,61.907,18.33Z" transform="translate(0 0)"/>
    <path id="Path_1229" data-name="Path 1229" class="cls-1" d="M115.48,353.467h-2.444a.57.57,0,0,0-.57.57v2.444a.57.57,0,0,0,.57.57h2.444a.57.57,0,0,0,.57-.57v-2.444A.57.57,0,0,0,115.48,353.467Zm-.57,2.444h-1.3v-1.3h1.3Z" transform="translate(-61.822 -344.025)"/>
    <path id="Path_1232" data-name="Path 1232" class="cls-1" d="M241.57,354.608h2.444a.57.57,0,0,0,0-1.141H241.57a.57.57,0,1,0,0,1.141Z" transform="translate(-185.468 -344.025)"/>
    <path id="Path_1233" data-name="Path 1233" class="cls-1" d="M246.458,417.733H241.57a.57.57,0,1,0,0,1.141h4.888a.57.57,0,0,0,0-1.141Z" transform="translate(-185.468 -405.847)"/>
  </g>
</svg>
