<svg xmlns="http://www.w3.org/2000/svg" width="158.746" height="157.201" viewBox="0 0 158.746 157.201">
  <defs>
    <style>
      .cls-1 {
        fill: #fff;
      }

      .cls-1, .cls-2, .cls-3, .cls-4, .cls-5 {
        fill-rule: evenodd;
      }

      .cls-2 {
        fill: #b5c4cf;
      }

      .cls-3 {
        fill: #d7e7ec;
      }

      .cls-4 {
        fill: #edf3f4;
      }

      .cls-5 {
        fill: #9aafb7;
      }
    </style>
  </defs>
  <g id="paper" transform="translate(0 -2.493)">
    <g id="Group_742" data-name="Group 742" transform="translate(2.323 16.937)">
      <path id="Path_1259" data-name="Path 1259" class="cls-1" d="M27.867,137.246,7.583,80.86a1.6,1.6,0,0,1,.962-2.031c26.669-9.589,56.72-18.507,82.408-29.465,1.148-.724,2.049-.009,2.543,1.36l31.87,82.124,8.654,24.061a1.593,1.593,0,0,1-.954,2.031L72.082,180.865,48.31,189.412a1.589,1.589,0,0,1-2.031-.954Z" transform="translate(-7.492 -49.078)"/>
    </g>
    <g id="Group_743" data-name="Group 743" transform="translate(29.456 10.796)">
      <path id="Path_1260" data-name="Path 1260" class="cls-1" d="M105.156,104.871,95.028,45.818a1.591,1.591,0,0,1,1.289-1.836L166.07,32.027,182.045,29.4c.874-.38,2.3.062,2.631,2.013l17.255,86.142,4.318,25.2a1.6,1.6,0,0,1-1.289,1.836l-63.873,10.949-24.9,4.273a1.608,1.608,0,0,1-1.837-1.3Z" transform="translate(-95.004 -29.271)"/>
    </g>
    <g id="Group_744" data-name="Group 744" transform="translate(59.151 4.818)">
      <path id="Path_1261" data-name="Path 1261" class="cls-1" d="M190.778,74.157v56.775a1.662,1.662,0,0,0,1.651,1.66H286.4a1.662,1.662,0,0,0,1.651-1.66V29.8H271.27c-1.616,0-4.972.229-4.972-3.435l-.035-16.379H192.429a1.654,1.654,0,0,0-1.651,1.651V74.157Z" transform="translate(-190.778 -9.991)"/>
    </g>
    <g id="Group_745" data-name="Group 745" transform="translate(2.323 37.135)">
      <path id="Path_1262" data-name="Path 1262" class="cls-2" d="M36.327,114.222c-9.449,3.179-18.809,6.331-27.781,9.554a1.6,1.6,0,0,0-.962,2.031l20.284,56.386L46.28,233.4a1.589,1.589,0,0,0,2.031.954l23.772-8.547,54.168-19.469Z" transform="translate(-7.493 -114.222)"/>
    </g>
    <g id="Group_746" data-name="Group 746" transform="translate(29.456 20.641)">
      <path id="Path_1263" data-name="Path 1263" class="cls-3" d="M124.7,61.025,96.318,65.89a1.591,1.591,0,0,0-1.289,1.836l1.678,9.792,8.451,49.261,9.193,53.64a1.608,1.608,0,0,0,1.837,1.3l24.9-4.273,45.54-7.806L197.34,167.8h-5.607Z" transform="translate(-95.005 -61.025)"/>
    </g>
    <g id="Group_747" data-name="Group 747" transform="translate(59.151 4.818)">
      <path id="Path_1264" data-name="Path 1264" class="cls-4" d="M288.048,104.257V29.549c0-.477-.2-.556-.936-1.272L269,11.006c-.857-.812-1-1.015-1.5-1.015h-75.07a1.654,1.654,0,0,0-1.651,1.651V130.93a1.662,1.662,0,0,0,1.651,1.66H286.4a1.662,1.662,0,0,0,1.651-1.66Z" transform="translate(-190.778 -9.991)"/>
    </g>
    <g id="Group_748" data-name="Group 748" transform="translate(52.502 20.641)">
      <path id="Path_1265" data-name="Path 1265" class="cls-2" d="M175.981,61.025l-6.649,1.139V172.243a1.656,1.656,0,0,0,1.651,1.66h42.043l24.885-4.265,10.712-1.836h-70.99a1.662,1.662,0,0,1-1.651-1.66Z" transform="translate(-169.332 -61.025)"/>
    </g>
    <g id="Group_749" data-name="Group 749" transform="translate(24.322 37.135)">
      <path id="Path_1266" data-name="Path 1266" class="cls-5" d="M93.732,163.482l-8.451-49.26q-3.431,1.152-6.835,2.3l1.051,6.119,8.451,49.26,9.2,53.64a1.6,1.6,0,0,0,1.828,1.3l24.9-4.273,11.815-2.022,35.588-12.8-.424-.662-20.54,3.523-20.655,3.541-24.9,4.273a1.608,1.608,0,0,1-1.837-1.3Z" transform="translate(-78.446 -114.222)"/>
    </g>
    <g id="Group_750" data-name="Group 750" transform="translate(116.259 4.818)">
      <path id="Path_1267" data-name="Path 1267" class="cls-3" d="M415.129,104.257V29.8c0-.892-.291-.9-.936-1.528L396.081,11.006c-.857-.812-1-1.015-1.5-1.015H374.967c22.456,30.056,23.737,84.235,7.074,118.052-.768,1.572-1.572,3.082-2.411,4.547h33.848a1.662,1.662,0,0,0,1.651-1.66V104.257Z" transform="translate(-374.967 -9.991)"/>
    </g>
    <g id="Group_751" data-name="Group 751" transform="translate(134.636 4.818)">
      <path id="Path_1268" data-name="Path 1268" class="cls-1" d="M434.272,26.371c0,3.664,3.356,3.435,4.972,3.435h16.778V29.55c0-.477-.2-.556-.936-1.272L436.974,11.007c-.857-.812-1-1.015-1.5-1.015h-1.236Z" transform="translate(-434.237 -9.992)"/>
    </g>
    <g id="Group_752" data-name="Group 752" transform="translate(134.636 4.818)">
      <path id="Path_1269" data-name="Path 1269" class="cls-2" d="M455.086,28.278,436.974,11.007c-.857-.812-1-1.015-1.5-1.015h-1.236l.035,16.379c0,3.664,3.356,3.435,4.972,3.435h16.778V29.55c0-.477-.2-.556-.936-1.272Z" transform="translate(-434.237 -9.992)"/>
    </g>
    <path id="Path_1270" data-name="Path 1270" d="M157.44,21.756C157.346,21.667,138.7,3.884,138.7,3.884a3.8,3.8,0,0,0-2.827-1.391H60.8a3.981,3.981,0,0,0-3.977,3.976V18.68L30.367,23.216a3.919,3.919,0,0,0-3.18,4.52l1.343,7.829C19.931,38.459,11.1,41.443,2.578,44.5a3.937,3.937,0,0,0-2.352,5L17.18,96.639a2.325,2.325,0,0,0,4.376-1.574L4.852,48.629C12.883,45.754,21.2,42.94,29.326,40.2l7.99,46.584,9.194,53.649a3.939,3.939,0,0,0,4.521,3.188l24.9-4.273,19.459-3.336L66.126,146.536l-23.079,8.3L25.124,104.981a2.325,2.325,0,0,0-4.376,1.574l18.178,50.561a3.928,3.928,0,0,0,3.68,2.578,3.847,3.847,0,0,0,1.322-.235L67.7,150.912l53.978-19.4,10.312-1.768h22.78a3.986,3.986,0,0,0,3.977-3.985V24.376a3.346,3.346,0,0,0-1.306-2.62Zm-6.161.551H139.354c-.557,0-1.862.013-2.192-.315a1.309,1.309,0,0,1-.166-.8l-.027-12.531ZM154.1,125.092H61.476V79.773a2.325,2.325,0,1,0-4.651,0v45.985a3.986,3.986,0,0,0,3.977,3.985h43.659l-29.314,5.025-24.178,4.149L41.9,86,31.9,27.672,56.825,23.4V68.983a2.325,2.325,0,1,0,4.651,0V7.143h70.839l.03,14.053a5.537,5.537,0,0,0,1.54,4.1,7.111,7.111,0,0,0,5.166,1.667l.336,0H154.1Z" transform="translate(0)"/>
    <g id="Group_753" data-name="Group 753" transform="translate(72.685 36.275)">
      <path id="Path_1271" data-name="Path 1271" d="M303.242,116.1H236.755a2.325,2.325,0,1,1,0-4.651h66.486a2.325,2.325,0,1,1,0,4.651Z" transform="translate(-234.43 -111.449)"/>
    </g>
    <g id="Group_754" data-name="Group 754" transform="translate(72.685 52.795)">
      <path id="Path_1272" data-name="Path 1272" d="M303.242,169.382H236.755a2.325,2.325,0,1,1,0-4.651h66.486a2.325,2.325,0,1,1,0,4.651Z" transform="translate(-234.43 -164.731)"/>
    </g>
    <g id="Group_755" data-name="Group 755" transform="translate(72.685 69.316)">
      <path id="Path_1273" data-name="Path 1273" d="M303.242,222.665H236.755a2.325,2.325,0,1,1,0-4.651h66.486a2.325,2.325,0,1,1,0,4.651Z" transform="translate(-234.43 -218.014)"/>
    </g>
    <g id="Group_756" data-name="Group 756" transform="translate(72.685 85.836)">
      <path id="Path_1274" data-name="Path 1274" d="M303.242,275.947H236.755a2.325,2.325,0,1,1,0-4.651h66.486a2.325,2.325,0,1,1,0,4.651Z" transform="translate(-234.43 -271.296)"/>
    </g>
    <g id="Group_757" data-name="Group 757" transform="translate(72.685 102.356)">
      <path id="Path_1275" data-name="Path 1275" d="M303.242,329.229H236.755a2.325,2.325,0,1,1,0-4.651h66.486a2.325,2.325,0,1,1,0,4.651Z" transform="translate(-234.43 -324.578)"/>
    </g>
  </g>
</svg>
