<svg xmlns="http://www.w3.org/2000/svg" width="18.807" height="17.397" viewBox="0 0 18.807 17.397">
  <defs>
    <style>
      .cls-1 {
        fill: #787878;
      }
    </style>
  </defs>
  <g id="wallet" transform="translate(0 -19.098)">
    <path id="Path_1226" data-name="Path 1226" class="cls-1" d="M17.086,23.091h-.234V20.818a1.722,1.722,0,0,0-1.72-1.72H2.657a2.659,2.659,0,0,0-2.643,2.4C-.006,21.589,0,20.743,0,33.839a2.659,2.659,0,0,0,2.656,2.656h14.43a1.722,1.722,0,0,0,1.72-1.72V24.811a1.722,1.722,0,0,0-1.72-1.72ZM2.657,20.28H15.132a.539.539,0,0,1,.539.539v2.272H2.657a1.407,1.407,0,1,1,0-2.811Zm14.43,15.034H2.657a1.476,1.476,0,0,1-1.474-1.474V23.824a2.64,2.64,0,0,0,1.474.448h14.43a.539.539,0,0,1,.539.539v2.395H13.179a2.746,2.746,0,1,0,0,5.491h4.446v2.077A.539.539,0,0,1,17.086,35.313Zm.539-3.8H13.179a1.564,1.564,0,1,1,0-3.129h4.446Z"/>
    <circle id="Ellipse_175" data-name="Ellipse 175" class="cls-1" cx="0.856" cy="0.856" r="0.856" transform="translate(12.541 29.095)"/>
  </g>
</svg>
