<svg xmlns="http://www.w3.org/2000/svg" width="56.582" height="52.34" viewBox="0 0 56.582 52.34">
  <defs>
    <style>
      .cls-1 {
        fill: #fff;
      }
    </style>
  </defs>
  <g id="wallet_2_" data-name="wallet (2)" transform="translate(0 -19.098)">
    <path id="Path_1250" data-name="Path 1250" class="cls-1" d="M51.407,31.11h-.7V24.273A5.181,5.181,0,0,0,45.528,19.1H7.993A8,8,0,0,0,.042,26.306C-.018,26.592,0,24.048,0,63.448a8,8,0,0,0,7.99,7.99H51.407a5.181,5.181,0,0,0,5.175-5.175V36.285a5.181,5.181,0,0,0-5.175-5.175ZM7.993,22.653H45.528a1.622,1.622,0,0,1,1.62,1.62V31.11H7.993a4.441,4.441,0,0,1-4.43-4.229A4.44,4.44,0,0,1,7.993,22.653Zm43.414,45.23H7.993a4.44,4.44,0,0,1-4.435-4.435V33.318a7.944,7.944,0,0,0,4.435,1.347H51.407a1.622,1.622,0,0,1,1.62,1.62V43.49H39.653a8.261,8.261,0,1,0,0,16.522H53.028v6.25A1.622,1.622,0,0,1,51.407,67.883Zm1.62-11.425H39.653a4.706,4.706,0,1,1,0-9.413H53.028Z"/>
    <circle id="Ellipse_177" data-name="Ellipse 177" class="cls-1" cx="2.576" cy="2.576" r="2.576" transform="translate(37.733 49.176)"/>
  </g>
</svg>
