<svg height="512" viewBox="0 0 64 64" width="512" xmlns="http://www.w3.org/2000/svg"><g id="vacuum-vacuum_cleaner-home-house-clean" data-name="vacuum-vacuum cleaner-home-house-clean"><path d="m44 39h2v4h-2z"/><path d="m44 45h2v2h-2z"/><path d="m60.01 25.05a2.963 2.963 0 0 0 1.85-1.54l.21-.41a3.022 3.022 0 0 0 -1.14-3.91l-27.39-16.43a2.988 2.988 0 0 0 -3.08 0l-27.39 16.43a3.022 3.022 0 0 0 -1.14 3.91l.21.41a2.963 2.963 0 0 0 1.85 1.54 2.923 2.923 0 0 0 .83.12 3.033 3.033 0 0 0 1.18-.27v31.1h-1a3 3 0 0 0 0 6h54a3 3 0 0 0 0-6h-1v-31.09a2.958 2.958 0 0 0 2.01.14zm-1.01 32.95a1 1 0 0 1 0 2h-54a1 1 0 0 1 0-2zm-9-9.9v-13.1a1 1 0 0 0 -1-1c-.34 0-.67.03-1 .05v-5.05a5 5 0 0 0 -5-5h-12a5 5 0 0 0 -5 5v7a3.009 3.009 0 0 1 -3 3h-1a5 5 0 0 0 -5 5v2h-1a1 1 0 0 0 -1 1v3h-2a3.009 3.009 0 0 0 -3 3v3h-2v-32.24l23.48-14.14a1.02 1.02 0 0 1 1.04 0l23.48 14.14v32.24h-3.03a4.924 4.924 0 0 0 1.03-3 5.017 5.017 0 0 0 -4-4.9zm-4.97 7.9h-13.03v-3a17.02 17.02 0 0 1 16-16.97v12.07a5.017 5.017 0 0 0 -4 4.9 4.924 4.924 0 0 0 1.03 3zm-22.03-6h-2v-3a1 1 0 0 0 -1-1h-1v-2a3.009 3.009 0 0 1 3-3h1a5 5 0 0 0 5-5v-7a3.009 3.009 0 0 1 3-3h12a3.009 3.009 0 0 1 3 3v5.26a19.022 19.022 0 0 0 -16 18.74v3h-4v-3a3.009 3.009 0 0 0 -3-3zm0 2a1 1 0 0 1 1 1v3h-12v-3a1 1 0 0 1 1-1zm-6-2v-2h2v2zm32 0a3 3 0 1 1 -3 3 3.009 3.009 0 0 1 3-3zm-15.45-42.09a2.979 2.979 0 0 0 -3.1 0l-25.11 15.12a1.018 1.018 0 0 1 -.8.1.972.972 0 0 1 -.61-.51l-.21-.41a1.021 1.021 0 0 1 .38-1.31l27.39-16.43a1 1 0 0 1 1.02 0l27.39 16.43a1.021 1.021 0 0 1 .38 1.31l-.21.41a.972.972 0 0 1 -.61.51 1.018 1.018 0 0 1 -.8-.1z"/><path d="m17 2h2v2h-2z"/><path d="m15 4h2v2h-2z"/><path d="m17 6h2v2h-2z"/><path d="m19 4h2v2h-2z"/><path d="m10 6h2v2h-2z"/><path d="m8 8h2v2h-2z"/><path d="m10 10h2v2h-2z"/><path d="m12 8h2v2h-2z"/><path d="m4 2h2v2h-2z"/><path d="m2 4h2v2h-2z"/><path d="m4 6h2v2h-2z"/><path d="m6 4h2v2h-2z"/><path d="m58 2h2v2h-2z"/><path d="m56 4h2v2h-2z"/><path d="m58 6h2v2h-2z"/><path d="m60 4h2v2h-2z"/><path d="m52 6h2v2h-2z"/><path d="m50 8h2v2h-2z"/><path d="m52 10h2v2h-2z"/><path d="m54 8h2v2h-2z"/><path d="m46 2h2v2h-2z"/><path d="m44 4h2v2h-2z"/><path d="m46 6h2v2h-2z"/><path d="m48 4h2v2h-2z"/></g></svg>